# xmcd
#
# Track frame offsets:
#	150
#	10797
#	36762
#	59492
#	81145
#	100645
#	127057
#	145335
#	160855
#	179760
#	199422
#
# Disc length: 2879 seconds
# Revision: 3
# Processed by: cddbd v1.5.2PL0 Copyright (c) Steve Scherf et al.
# Submitted via: dBpowerAMP V12.0
#
DISCID=990b3d0b
DTITLE=Darrell Scott - Aloha from Nashville
DYEAR=1997
DGENRE=Country
TTITLE0=Head South
TTITLE1=Banjo Clark
TTITLE2=You'll Never Leave Harlan Alive
TTITLE3=It's a Great Day to Be Alive
TTITLE4=I Wish
TTITLE5=The Ballad of Martha White
TTITLE6=It's the Whiskey That Eases the Pain
TTITLE7=Spelling Bee Romance
TTITLE8=Life Is Cheap
TTITLE9=Heartbreak Town
TTITLE10=Title of the Song
EXTD=
EXTT0=
EXTT1=
EXTT2=
EXTT3=
EXTT4=
EXTT5=
EXTT6=
EXTT7=
EXTT8=
EXTT9=
EXTT10=
PLAYORDER=
